<svg xmlns="http://www.w3.org/2000/svg" width="1008.9" height="1129.2" viewBox="0 0 1008.9 1129.2"><path d="M153.92,1126.43V623.55c-44.28,5.18-86.1,7.77-135.31,11.66L5.08,523.76H72.74c22.14-32.4,41.82-68.69,62.73-102.39C90,356.57,49.37,307.37.16,251.59l57.82-92c12.3,14.25,23.37,28.51,34.44,40.17C121.94,136.26,149,68.87,168.68.18L253.55,43c-28.29,81.65-60.27,156.81-102.09,232l35.67,49.25c35.67-70,67.65-140,97.17-211.25l81.18,50.48c-64,133.48-130.38,254-193.11,357.69L272,515.94l-27.06-81.61,66.42-27.21C342.08,482.28,363,549.68,381.47,630l-71.34,31.1c-4.92-19.44-8.61-36.29-14.76-51.84l-45.51,5.19v512ZM126.86,696.12c-3.69,110.17-13.53,252.73-44.28,366.77l-77.5-44.06c28.29-107.57,39.37-219,41.83-338.26Zm180.81,276c-8.61-93.31-20.91-193.1-38.13-276l64-23.32c19.68,86.83,38.13,186.62,48,269.57ZM671.75,212.71c-7.38,50.55-17.22,99.8-29.52,145.16h86.1V303.43c0-90.72,1.23-189.21,2.46-295.48h92.29V116.81L889.5,72.75c40.59,64.8,72.57,120.52,97.17,184l-73.8,50.54c-27.1-71.25-56.62-133.46-89.79-190.48-1.23,93.31-2.46,173.66-2.46,241.06h171v98.49h-171c1.23,97.2,3.69,169.78,12.3,233.28,0,5.19,1.23,9.08,1.23,14.26A1001.57,1001.57,0,0,0,903,492.65L991.59,538C963.26,650.76,919,759.63,858.71,859.43c7.38,31.11,16,62.21,27.06,86.83,3.69,10.37,11.07,19.44,17.22,19.44,3.69,0,6.15-3.88,9.84-15.55,7.38-35,12.3-85.53,13.53-130.89l82.41,60.91c-7.38,60.91-17.22,136.08-30.75,176.25-9.84,28.52-28.29,48-60.27,48-30.75,0-64-22-87.33-70-16-27.21-25.83-53.13-36.9-82.94-51.66,66.09-113.16,127-183.27,177.55l-67.65-82.94A921.58,921.58,0,0,0,657,956.66H483.56v72.58H387.62v-512H687.74V924.22a668.76,668.76,0,0,0,73.8-93.31c-8.61-46.66-14.76-98.48-19.68-155.48-7.38-64.8-11.07-138.67-12.3-219H345.8V357.87h83.64c-6.15-49.25-12.3-95.91-23.37-145.16H365.48v-94.6H490.94V4.11H591.8v114H709.88v94.6ZM483.56,689.64H595.49v-79H483.56Zm0,175H595.49V776.48H483.56ZM582,212.74H492.17c8.61,48,16,94.61,22.14,145.16h41.82c11.07-48,21-99.83,25.83-145.19Z"/></svg>