<svg id="Layer_1" data-name="Layer 1" xmlns="http://www.w3.org/2000/svg" viewBox="0 0 1200 1200"><path class="cls-1" d="M248.84,1191V688.12c-44.28,5.18-86.1,7.78-135.31,11.66L100,588.33h67.66c22.14-32.4,41.82-68.69,62.73-102.39-45.51-64.8-86.1-114-135.31-169.77l57.82-92c12.3,14.25,23.37,28.51,34.44,40.18,29.52-63.51,56.58-130.9,76.26-199.59l84.87,42.77c-28.29,81.65-60.27,156.82-102.09,232l35.67,49.25c35.67-70,67.65-140,97.17-211.25L460.4,228c-64,133.49-130.38,254-193.11,357.69l99.63-5.18L339.86,498.9l66.42-27.21C437,546.85,457.94,614.25,476.39,694.6l-71.34,31.1c-4.92-19.44-8.61-36.29-14.76-51.84l-45.51,5.19V1191ZM221.78,760.69c-3.69,110.17-13.53,252.73-44.28,366.77L100,1083.4c28.29-107.57,39.37-219,41.83-338.26Zm180.81,276c-8.61-93.31-20.91-193.1-38.13-276l64-23.32c19.68,86.83,38.13,186.62,48,269.57ZM766.67,277.29c-7.38,50.54-17.22,99.79-29.52,145.15h86.1V368c0-90.72,1.23-189.22,2.46-295.49H918V181.38l66.42-44.06c40.59,64.8,72.57,120.53,97.17,184l-73.8,50.54C980.69,300.61,951.17,238.4,918,181.38c-1.23,93.31-2.46,173.67-2.46,241.06h171v98.49h-171c1.23,97.2,3.69,169.78,12.3,233.29,0,5.18,1.23,9.07,1.23,14.25a1001.09,1001.09,0,0,0,68.88-211.25l88.56,45.36C1058.18,715.33,1013.9,824.2,953.63,924c7.38,31.11,16,62.21,27.06,86.83,3.69,10.37,11.07,19.44,17.22,19.44,3.69,0,6.15-3.88,9.84-15.55,7.38-35,12.3-85.53,13.53-130.89l82.41,60.91c-7.38,60.91-17.22,136.08-30.75,176.25-9.84,28.52-28.29,48-60.27,48-30.75,0-64-22-87.33-70-16-27.21-25.83-53.13-36.9-82.94-51.66,66.09-113.16,127-183.27,177.55l-67.65-82.94a920.55,920.55,0,0,0,114.39-89.43H578.48v72.58H482.54V581.85H782.66V988.79a667.79,667.79,0,0,0,73.8-93.31C847.85,848.82,841.7,797,836.78,740c-7.38-64.8-11.07-138.67-12.3-219H440.72V422.44h83.64c-6.15-49.25-12.3-95.91-23.37-145.15H460.4V182.68H585.86v-114H686.72V182.68H804.8v94.61ZM578.48,754.22H690.41V675.16H578.48Zm0,175H690.41V841.05H578.48Zm98.4-651.89H587.09c8.61,47.95,16,94.6,22.14,145.15h41.82C662.12,374.49,672,322.65,676.88,277.29Z"/></svg>